<?xml version="1.0" encoding="utf-8" standalone="no"?>
<!DOCTYPE svg PUBLIC "-//W3C//DTD SVG 1.1//EN"
  "http://www.w3.org/Graphics/SVG/1.1/DTD/svg11.dtd">
<svg xmlns:xlink="http://www.w3.org/1999/xlink" width="522.225312pt" height="363.269375pt" viewBox="0 0 522.225312 363.269375" xmlns="http://www.w3.org/2000/svg" version="1.1">
 <metadata>
  <rdf:RDF xmlns:dc="http://purl.org/dc/elements/1.1/" xmlns:cc="http://creativecommons.org/ns#" xmlns:rdf="http://www.w3.org/1999/02/22-rdf-syntax-ns#">
   <cc:Work>
    <dc:type rdf:resource="http://purl.org/dc/dcmitype/StillImage"/>
    <dc:date>2022-03-31T22:27:38.008433</dc:date>
    <dc:format>image/svg+xml</dc:format>
    <dc:creator>
     <cc:Agent>
      <dc:title>Matplotlib v3.5.1, https://matplotlib.org/</dc:title>
     </cc:Agent>
    </dc:creator>
   </cc:Work>
  </rdf:RDF>
 </metadata>
 <defs>
  <style type="text/css">*{stroke-linejoin: round; stroke-linecap: butt}</style>
 </defs>
 <g id="figure_1">
  <g id="patch_1">
   <path d="M 0 363.269375 
L 522.225312 363.269375 
L 522.225312 0 
L 0 0 
z
" style="fill: #ffffff"/>
  </g>
  <g id="axes_1">
   <g id="patch_2">
    <path d="M 65.745313 335.52 
L 515.025313 335.52 
L 515.025313 7.2 
L 65.745313 7.2 
z
" style="fill: #ffffff"/>
   </g>
   <g id="matplotlib.axis_1">
    <g id="xtick_1">
     <g id="text_1">
      <!-- CMs -->
      <g style="fill: #262626" transform="translate(73.635094 353.157812)scale(0.14 -0.14)">
       <defs>
        <path id="DejaVuSans-43" d="M 4122 4306 
L 4122 3641 
Q 3803 3938 3442 4084 
Q 3081 4231 2675 4231 
Q 1875 4231 1450 3742 
Q 1025 3253 1025 2328 
Q 1025 1406 1450 917 
Q 1875 428 2675 428 
Q 3081 428 3442 575 
Q 3803 722 4122 1019 
L 4122 359 
Q 3791 134 3420 21 
Q 3050 -91 2638 -91 
Q 1578 -91 968 557 
Q 359 1206 359 2328 
Q 359 3453 968 4101 
Q 1578 4750 2638 4750 
Q 3056 4750 3426 4639 
Q 3797 4528 4122 4306 
z
" transform="scale(0.015625)"/>
        <path id="DejaVuSans-4d" d="M 628 4666 
L 1569 4666 
L 2759 1491 
L 3956 4666 
L 4897 4666 
L 4897 0 
L 4281 0 
L 4281 4097 
L 3078 897 
L 2444 897 
L 1241 4097 
L 1241 0 
L 628 0 
L 628 4666 
z
" transform="scale(0.015625)"/>
        <path id="DejaVuSans-73" d="M 2834 3397 
L 2834 2853 
Q 2591 2978 2328 3040 
Q 2066 3103 1784 3103 
Q 1356 3103 1142 2972 
Q 928 2841 928 2578 
Q 928 2378 1081 2264 
Q 1234 2150 1697 2047 
L 1894 2003 
Q 2506 1872 2764 1633 
Q 3022 1394 3022 966 
Q 3022 478 2636 193 
Q 2250 -91 1575 -91 
Q 1294 -91 989 -36 
Q 684 19 347 128 
L 347 722 
Q 666 556 975 473 
Q 1284 391 1588 391 
Q 1994 391 2212 530 
Q 2431 669 2431 922 
Q 2431 1156 2273 1281 
Q 2116 1406 1581 1522 
L 1381 1569 
Q 847 1681 609 1914 
Q 372 2147 372 2553 
Q 372 3047 722 3315 
Q 1072 3584 1716 3584 
Q 2034 3584 2315 3537 
Q 2597 3491 2834 3397 
z
" transform="scale(0.015625)"/>
       </defs>
       <use xlink:href="#DejaVuSans-43"/>
       <use xlink:href="#DejaVuSans-4d" x="69.824219"/>
       <use xlink:href="#DejaVuSans-73" x="156.103516"/>
      </g>
     </g>
    </g>
    <g id="xtick_2">
     <g id="text_2">
      <!-- CNCs -->
      <g style="fill: #262626" transform="translate(114.477938 353.157812)scale(0.14 -0.14)">
       <defs>
        <path id="DejaVuSans-4e" d="M 628 4666 
L 1478 4666 
L 3547 763 
L 3547 4666 
L 4159 4666 
L 4159 0 
L 3309 0 
L 1241 3903 
L 1241 0 
L 628 0 
L 628 4666 
z
" transform="scale(0.015625)"/>
       </defs>
       <use xlink:href="#DejaVuSans-43"/>
       <use xlink:href="#DejaVuSans-4e" x="69.824219"/>
       <use xlink:href="#DejaVuSans-43" x="144.628906"/>
       <use xlink:href="#DejaVuSans-73" x="214.453125"/>
      </g>
     </g>
    </g>
    <g id="xtick_3">
     <g id="text_3">
      <!-- EdCs -->
      <g style="fill: #262626" transform="translate(160.66375 353.157812)scale(0.14 -0.14)">
       <defs>
        <path id="DejaVuSans-45" d="M 628 4666 
L 3578 4666 
L 3578 4134 
L 1259 4134 
L 1259 2753 
L 3481 2753 
L 3481 2222 
L 1259 2222 
L 1259 531 
L 3634 531 
L 3634 0 
L 628 0 
L 628 4666 
z
" transform="scale(0.015625)"/>
        <path id="DejaVuSans-64" d="M 2906 2969 
L 2906 4863 
L 3481 4863 
L 3481 0 
L 2906 0 
L 2906 525 
Q 2725 213 2448 61 
Q 2172 -91 1784 -91 
Q 1150 -91 751 415 
Q 353 922 353 1747 
Q 353 2572 751 3078 
Q 1150 3584 1784 3584 
Q 2172 3584 2448 3432 
Q 2725 3281 2906 2969 
z
M 947 1747 
Q 947 1113 1208 752 
Q 1469 391 1925 391 
Q 2381 391 2643 752 
Q 2906 1113 2906 1747 
Q 2906 2381 2643 2742 
Q 2381 3103 1925 3103 
Q 1469 3103 1208 2742 
Q 947 2381 947 1747 
z
" transform="scale(0.015625)"/>
       </defs>
       <use xlink:href="#DejaVuSans-45"/>
       <use xlink:href="#DejaVuSans-64" x="63.183594"/>
       <use xlink:href="#DejaVuSans-43" x="126.660156"/>
       <use xlink:href="#DejaVuSans-73" x="196.484375"/>
      </g>
     </g>
    </g>
    <g id="xtick_4">
     <g id="text_4">
      <!-- ECs -->
      <g style="fill: #262626" transform="translate(210.035656 353.157812)scale(0.14 -0.14)">
       <use xlink:href="#DejaVuSans-45"/>
       <use xlink:href="#DejaVuSans-43" x="63.183594"/>
       <use xlink:href="#DejaVuSans-73" x="133.007812"/>
      </g>
     </g>
    </g>
    <g id="xtick_5">
     <g id="text_5">
      <!-- RBCs -->
      <g style="fill: #262626" transform="translate(249.842719 353.157812)scale(0.14 -0.14)">
       <defs>
        <path id="DejaVuSans-52" d="M 2841 2188 
Q 3044 2119 3236 1894 
Q 3428 1669 3622 1275 
L 4263 0 
L 3584 0 
L 2988 1197 
Q 2756 1666 2539 1819 
Q 2322 1972 1947 1972 
L 1259 1972 
L 1259 0 
L 628 0 
L 628 4666 
L 2053 4666 
Q 2853 4666 3247 4331 
Q 3641 3997 3641 3322 
Q 3641 2881 3436 2590 
Q 3231 2300 2841 2188 
z
M 1259 4147 
L 1259 2491 
L 2053 2491 
Q 2509 2491 2742 2702 
Q 2975 2913 2975 3322 
Q 2975 3731 2742 3939 
Q 2509 4147 2053 4147 
L 1259 4147 
z
" transform="scale(0.015625)"/>
        <path id="DejaVuSans-42" d="M 1259 2228 
L 1259 519 
L 2272 519 
Q 2781 519 3026 730 
Q 3272 941 3272 1375 
Q 3272 1813 3026 2020 
Q 2781 2228 2272 2228 
L 1259 2228 
z
M 1259 4147 
L 1259 2741 
L 2194 2741 
Q 2656 2741 2882 2914 
Q 3109 3088 3109 3444 
Q 3109 3797 2882 3972 
Q 2656 4147 2194 4147 
L 1259 4147 
z
M 628 4666 
L 2241 4666 
Q 2963 4666 3353 4366 
Q 3744 4066 3744 3513 
Q 3744 3084 3544 2831 
Q 3344 2578 2956 2516 
Q 3422 2416 3680 2098 
Q 3938 1781 3938 1306 
Q 3938 681 3513 340 
Q 3088 0 2303 0 
L 628 0 
L 628 4666 
z
" transform="scale(0.015625)"/>
       </defs>
       <use xlink:href="#DejaVuSans-52"/>
       <use xlink:href="#DejaVuSans-42" x="69.482422"/>
       <use xlink:href="#DejaVuSans-43" x="136.335938"/>
       <use xlink:href="#DejaVuSans-73" x="206.160156"/>
      </g>
     </g>
    </g>
    <g id="xtick_6">
     <g id="text_6">
      <!-- FBCs -->
      <g style="fill: #262626" transform="translate(295.608531 353.157812)scale(0.14 -0.14)">
       <defs>
        <path id="DejaVuSans-46" d="M 628 4666 
L 3309 4666 
L 3309 4134 
L 1259 4134 
L 1259 2759 
L 3109 2759 
L 3109 2228 
L 1259 2228 
L 1259 0 
L 628 0 
L 628 4666 
z
" transform="scale(0.015625)"/>
       </defs>
       <use xlink:href="#DejaVuSans-46"/>
       <use xlink:href="#DejaVuSans-42" x="57.519531"/>
       <use xlink:href="#DejaVuSans-43" x="124.373047"/>
       <use xlink:href="#DejaVuSans-73" x="194.197266"/>
      </g>
     </g>
    </g>
    <g id="xtick_7">
     <g id="text_7">
      <!-- LCs -->
      <g style="fill: #262626" transform="translate(345.342469 353.157812)scale(0.14 -0.14)">
       <defs>
        <path id="DejaVuSans-4c" d="M 628 4666 
L 1259 4666 
L 1259 531 
L 3531 531 
L 3531 0 
L 628 0 
L 628 4666 
z
" transform="scale(0.015625)"/>
       </defs>
       <use xlink:href="#DejaVuSans-4c"/>
       <use xlink:href="#DejaVuSans-43" x="55.712891"/>
       <use xlink:href="#DejaVuSans-73" x="125.537109"/>
      </g>
     </g>
    </g>
    <g id="xtick_8">
     <g id="text_8">
      <!-- MFBCs -->
      <g style="fill: #262626" transform="translate(379.424844 353.157812)scale(0.14 -0.14)">
       <use xlink:href="#DejaVuSans-4d"/>
       <use xlink:href="#DejaVuSans-46" x="86.279297"/>
       <use xlink:href="#DejaVuSans-42" x="143.798828"/>
       <use xlink:href="#DejaVuSans-43" x="210.652344"/>
       <use xlink:href="#DejaVuSans-73" x="280.476562"/>
      </g>
     </g>
    </g>
    <g id="xtick_9">
     <g id="text_9">
      <!-- APCs -->
      <g style="fill: #262626" transform="translate(430.089563 353.157812)scale(0.14 -0.14)">
       <defs>
        <path id="DejaVuSans-41" d="M 2188 4044 
L 1331 1722 
L 3047 1722 
L 2188 4044 
z
M 1831 4666 
L 2547 4666 
L 4325 0 
L 3669 0 
L 3244 1197 
L 1141 1197 
L 716 0 
L 50 0 
L 1831 4666 
z
" transform="scale(0.015625)"/>
        <path id="DejaVuSans-50" d="M 1259 4147 
L 1259 2394 
L 2053 2394 
Q 2494 2394 2734 2622 
Q 2975 2850 2975 3272 
Q 2975 3691 2734 3919 
Q 2494 4147 2053 4147 
L 1259 4147 
z
M 628 4666 
L 2053 4666 
Q 2838 4666 3239 4311 
Q 3641 3956 3641 3272 
Q 3641 2581 3239 2228 
Q 2838 1875 2053 1875 
L 1259 1875 
L 1259 0 
L 628 0 
L 628 4666 
z
" transform="scale(0.015625)"/>
       </defs>
       <use xlink:href="#DejaVuSans-41"/>
       <use xlink:href="#DejaVuSans-50" x="68.408203"/>
       <use xlink:href="#DejaVuSans-43" x="128.710938"/>
       <use xlink:href="#DejaVuSans-73" x="198.535156"/>
      </g>
     </g>
    </g>
    <g id="xtick_10">
     <g id="text_10">
      <!-- SMCs -->
      <g style="fill: #262626" transform="translate(473.543188 353.157812)scale(0.14 -0.14)">
       <defs>
        <path id="DejaVuSans-53" d="M 3425 4513 
L 3425 3897 
Q 3066 4069 2747 4153 
Q 2428 4238 2131 4238 
Q 1616 4238 1336 4038 
Q 1056 3838 1056 3469 
Q 1056 3159 1242 3001 
Q 1428 2844 1947 2747 
L 2328 2669 
Q 3034 2534 3370 2195 
Q 3706 1856 3706 1288 
Q 3706 609 3251 259 
Q 2797 -91 1919 -91 
Q 1588 -91 1214 -16 
Q 841 59 441 206 
L 441 856 
Q 825 641 1194 531 
Q 1563 422 1919 422 
Q 2459 422 2753 634 
Q 3047 847 3047 1241 
Q 3047 1584 2836 1778 
Q 2625 1972 2144 2069 
L 1759 2144 
Q 1053 2284 737 2584 
Q 422 2884 422 3419 
Q 422 4038 858 4394 
Q 1294 4750 2059 4750 
Q 2388 4750 2728 4690 
Q 3069 4631 3425 4513 
z
" transform="scale(0.015625)"/>
       </defs>
       <use xlink:href="#DejaVuSans-53"/>
       <use xlink:href="#DejaVuSans-4d" x="63.476562"/>
       <use xlink:href="#DejaVuSans-43" x="149.755859"/>
       <use xlink:href="#DejaVuSans-73" x="219.580078"/>
      </g>
     </g>
    </g>
   </g>
   <g id="matplotlib.axis_2">
    <g id="ytick_1">
     <g id="text_11">
      <!-- −0.3 -->
      <g style="fill: #262626" transform="translate(24.749375 332.09634)scale(0.14 -0.14)">
       <defs>
        <path id="DejaVuSans-2212" d="M 678 2272 
L 4684 2272 
L 4684 1741 
L 678 1741 
L 678 2272 
z
" transform="scale(0.015625)"/>
        <path id="DejaVuSans-30" d="M 2034 4250 
Q 1547 4250 1301 3770 
Q 1056 3291 1056 2328 
Q 1056 1369 1301 889 
Q 1547 409 2034 409 
Q 2525 409 2770 889 
Q 3016 1369 3016 2328 
Q 3016 3291 2770 3770 
Q 2525 4250 2034 4250 
z
M 2034 4750 
Q 2819 4750 3233 4129 
Q 3647 3509 3647 2328 
Q 3647 1150 3233 529 
Q 2819 -91 2034 -91 
Q 1250 -91 836 529 
Q 422 1150 422 2328 
Q 422 3509 836 4129 
Q 1250 4750 2034 4750 
z
" transform="scale(0.015625)"/>
        <path id="DejaVuSans-2e" d="M 684 794 
L 1344 794 
L 1344 0 
L 684 0 
L 684 794 
z
" transform="scale(0.015625)"/>
        <path id="DejaVuSans-33" d="M 2597 2516 
Q 3050 2419 3304 2112 
Q 3559 1806 3559 1356 
Q 3559 666 3084 287 
Q 2609 -91 1734 -91 
Q 1441 -91 1130 -33 
Q 819 25 488 141 
L 488 750 
Q 750 597 1062 519 
Q 1375 441 1716 441 
Q 2309 441 2620 675 
Q 2931 909 2931 1356 
Q 2931 1769 2642 2001 
Q 2353 2234 1838 2234 
L 1294 2234 
L 1294 2753 
L 1863 2753 
Q 2328 2753 2575 2939 
Q 2822 3125 2822 3475 
Q 2822 3834 2567 4026 
Q 2313 4219 1838 4219 
Q 1578 4219 1281 4162 
Q 984 4106 628 3988 
L 628 4550 
Q 988 4650 1302 4700 
Q 1616 4750 1894 4750 
Q 2613 4750 3031 4423 
Q 3450 4097 3450 3541 
Q 3450 3153 3228 2886 
Q 3006 2619 2597 2516 
z
" transform="scale(0.015625)"/>
       </defs>
       <use xlink:href="#DejaVuSans-2212"/>
       <use xlink:href="#DejaVuSans-30" x="83.789062"/>
       <use xlink:href="#DejaVuSans-2e" x="147.412109"/>
       <use xlink:href="#DejaVuSans-33" x="179.199219"/>
      </g>
     </g>
    </g>
    <g id="ytick_2">
     <g id="text_12">
      <!-- −0.2 -->
      <g style="fill: #262626" transform="translate(24.749375 286.067042)scale(0.14 -0.14)">
       <defs>
        <path id="DejaVuSans-32" d="M 1228 531 
L 3431 531 
L 3431 0 
L 469 0 
L 469 531 
Q 828 903 1448 1529 
Q 2069 2156 2228 2338 
Q 2531 2678 2651 2914 
Q 2772 3150 2772 3378 
Q 2772 3750 2511 3984 
Q 2250 4219 1831 4219 
Q 1534 4219 1204 4116 
Q 875 4013 500 3803 
L 500 4441 
Q 881 4594 1212 4672 
Q 1544 4750 1819 4750 
Q 2544 4750 2975 4387 
Q 3406 4025 3406 3419 
Q 3406 3131 3298 2873 
Q 3191 2616 2906 2266 
Q 2828 2175 2409 1742 
Q 1991 1309 1228 531 
z
" transform="scale(0.015625)"/>
       </defs>
       <use xlink:href="#DejaVuSans-2212"/>
       <use xlink:href="#DejaVuSans-30" x="83.789062"/>
       <use xlink:href="#DejaVuSans-2e" x="147.412109"/>
       <use xlink:href="#DejaVuSans-32" x="179.199219"/>
      </g>
     </g>
    </g>
    <g id="ytick_3">
     <g id="text_13">
      <!-- −0.1 -->
      <g style="fill: #262626" transform="translate(24.749375 240.037744)scale(0.14 -0.14)">
       <defs>
        <path id="DejaVuSans-31" d="M 794 531 
L 1825 531 
L 1825 4091 
L 703 3866 
L 703 4441 
L 1819 4666 
L 2450 4666 
L 2450 531 
L 3481 531 
L 3481 0 
L 794 0 
L 794 531 
z
" transform="scale(0.015625)"/>
       </defs>
       <use xlink:href="#DejaVuSans-2212"/>
       <use xlink:href="#DejaVuSans-30" x="83.789062"/>
       <use xlink:href="#DejaVuSans-2e" x="147.412109"/>
       <use xlink:href="#DejaVuSans-31" x="179.199219"/>
      </g>
     </g>
    </g>
    <g id="ytick_4">
     <g id="text_14">
      <!-- 0.0 -->
      <g style="fill: #262626" transform="translate(36.480938 194.008445)scale(0.14 -0.14)">
       <use xlink:href="#DejaVuSans-30"/>
       <use xlink:href="#DejaVuSans-2e" x="63.623047"/>
       <use xlink:href="#DejaVuSans-30" x="95.410156"/>
      </g>
     </g>
    </g>
    <g id="ytick_5">
     <g id="text_15">
      <!-- 0.1 -->
      <g style="fill: #262626" transform="translate(36.480938 147.979147)scale(0.14 -0.14)">
       <use xlink:href="#DejaVuSans-30"/>
       <use xlink:href="#DejaVuSans-2e" x="63.623047"/>
       <use xlink:href="#DejaVuSans-31" x="95.410156"/>
      </g>
     </g>
    </g>
    <g id="ytick_6">
     <g id="text_16">
      <!-- 0.2 -->
      <g style="fill: #262626" transform="translate(36.480938 101.949848)scale(0.14 -0.14)">
       <use xlink:href="#DejaVuSans-30"/>
       <use xlink:href="#DejaVuSans-2e" x="63.623047"/>
       <use xlink:href="#DejaVuSans-32" x="95.410156"/>
      </g>
     </g>
    </g>
    <g id="ytick_7">
     <g id="text_17">
      <!-- 0.3 -->
      <g style="fill: #262626" transform="translate(36.480938 55.92055)scale(0.14 -0.14)">
       <use xlink:href="#DejaVuSans-30"/>
       <use xlink:href="#DejaVuSans-2e" x="63.623047"/>
       <use xlink:href="#DejaVuSans-33" x="95.410156"/>
      </g>
     </g>
    </g>
    <g id="text_18">
     <!-- Correlation -->
     <g style="fill: #262626" transform="translate(17.837813 209.95625)rotate(-90)scale(0.14 -0.14)">
      <defs>
       <path id="DejaVuSans-6f" d="M 1959 3097 
Q 1497 3097 1228 2736 
Q 959 2375 959 1747 
Q 959 1119 1226 758 
Q 1494 397 1959 397 
Q 2419 397 2687 759 
Q 2956 1122 2956 1747 
Q 2956 2369 2687 2733 
Q 2419 3097 1959 3097 
z
M 1959 3584 
Q 2709 3584 3137 3096 
Q 3566 2609 3566 1747 
Q 3566 888 3137 398 
Q 2709 -91 1959 -91 
Q 1206 -91 779 398 
Q 353 888 353 1747 
Q 353 2609 779 3096 
Q 1206 3584 1959 3584 
z
" transform="scale(0.015625)"/>
       <path id="DejaVuSans-72" d="M 2631 2963 
Q 2534 3019 2420 3045 
Q 2306 3072 2169 3072 
Q 1681 3072 1420 2755 
Q 1159 2438 1159 1844 
L 1159 0 
L 581 0 
L 581 3500 
L 1159 3500 
L 1159 2956 
Q 1341 3275 1631 3429 
Q 1922 3584 2338 3584 
Q 2397 3584 2469 3576 
Q 2541 3569 2628 3553 
L 2631 2963 
z
" transform="scale(0.015625)"/>
       <path id="DejaVuSans-65" d="M 3597 1894 
L 3597 1613 
L 953 1613 
Q 991 1019 1311 708 
Q 1631 397 2203 397 
Q 2534 397 2845 478 
Q 3156 559 3463 722 
L 3463 178 
Q 3153 47 2828 -22 
Q 2503 -91 2169 -91 
Q 1331 -91 842 396 
Q 353 884 353 1716 
Q 353 2575 817 3079 
Q 1281 3584 2069 3584 
Q 2775 3584 3186 3129 
Q 3597 2675 3597 1894 
z
M 3022 2063 
Q 3016 2534 2758 2815 
Q 2500 3097 2075 3097 
Q 1594 3097 1305 2825 
Q 1016 2553 972 2059 
L 3022 2063 
z
" transform="scale(0.015625)"/>
       <path id="DejaVuSans-6c" d="M 603 4863 
L 1178 4863 
L 1178 0 
L 603 0 
L 603 4863 
z
" transform="scale(0.015625)"/>
       <path id="DejaVuSans-61" d="M 2194 1759 
Q 1497 1759 1228 1600 
Q 959 1441 959 1056 
Q 959 750 1161 570 
Q 1363 391 1709 391 
Q 2188 391 2477 730 
Q 2766 1069 2766 1631 
L 2766 1759 
L 2194 1759 
z
M 3341 1997 
L 3341 0 
L 2766 0 
L 2766 531 
Q 2569 213 2275 61 
Q 1981 -91 1556 -91 
Q 1019 -91 701 211 
Q 384 513 384 1019 
Q 384 1609 779 1909 
Q 1175 2209 1959 2209 
L 2766 2209 
L 2766 2266 
Q 2766 2663 2505 2880 
Q 2244 3097 1772 3097 
Q 1472 3097 1187 3025 
Q 903 2953 641 2809 
L 641 3341 
Q 956 3463 1253 3523 
Q 1550 3584 1831 3584 
Q 2591 3584 2966 3190 
Q 3341 2797 3341 1997 
z
" transform="scale(0.015625)"/>
       <path id="DejaVuSans-74" d="M 1172 4494 
L 1172 3500 
L 2356 3500 
L 2356 3053 
L 1172 3053 
L 1172 1153 
Q 1172 725 1289 603 
Q 1406 481 1766 481 
L 2356 481 
L 2356 0 
L 1766 0 
Q 1100 0 847 248 
Q 594 497 594 1153 
L 594 3053 
L 172 3053 
L 172 3500 
L 594 3500 
L 594 4494 
L 1172 4494 
z
" transform="scale(0.015625)"/>
       <path id="DejaVuSans-69" d="M 603 3500 
L 1178 3500 
L 1178 0 
L 603 0 
L 603 3500 
z
M 603 4863 
L 1178 4863 
L 1178 4134 
L 603 4134 
L 603 4863 
z
" transform="scale(0.015625)"/>
       <path id="DejaVuSans-6e" d="M 3513 2113 
L 3513 0 
L 2938 0 
L 2938 2094 
Q 2938 2591 2744 2837 
Q 2550 3084 2163 3084 
Q 1697 3084 1428 2787 
Q 1159 2491 1159 1978 
L 1159 0 
L 581 0 
L 581 3500 
L 1159 3500 
L 1159 2956 
Q 1366 3272 1645 3428 
Q 1925 3584 2291 3584 
Q 2894 3584 3203 3211 
Q 3513 2838 3513 2113 
z
" transform="scale(0.015625)"/>
      </defs>
      <use xlink:href="#DejaVuSans-43"/>
      <use xlink:href="#DejaVuSans-6f" x="69.824219"/>
      <use xlink:href="#DejaVuSans-72" x="131.005859"/>
      <use xlink:href="#DejaVuSans-72" x="170.369141"/>
      <use xlink:href="#DejaVuSans-65" x="209.232422"/>
      <use xlink:href="#DejaVuSans-6c" x="270.755859"/>
      <use xlink:href="#DejaVuSans-61" x="298.539062"/>
      <use xlink:href="#DejaVuSans-74" x="359.818359"/>
      <use xlink:href="#DejaVuSans-69" x="399.027344"/>
      <use xlink:href="#DejaVuSans-6f" x="426.810547"/>
      <use xlink:href="#DejaVuSans-6e" x="487.992188"/>
     </g>
    </g>
   </g>
   <g id="patch_3">
    <path d="M 70.238112 188.689539 
L 79.223713 188.689539 
L 79.223713 22.123636 
L 70.238112 22.123636 
z
" clip-path="url(#pbb78562204)" style="fill: #296399; stroke: #ffffff; stroke-linejoin: miter"/>
   </g>
   <g id="patch_4">
    <path d="M 115.166113 188.689539 
L 124.151713 188.689539 
L 124.151713 227.677478 
L 115.166113 227.677478 
z
" clip-path="url(#pbb78562204)" style="fill: #296399; stroke: #ffffff; stroke-linejoin: miter"/>
   </g>
   <g id="patch_5">
    <path d="M 160.094112 188.689539 
L 169.079712 188.689539 
L 169.079712 167.559346 
L 160.094112 167.559346 
z
" clip-path="url(#pbb78562204)" style="fill: #296399; stroke: #ffffff; stroke-linejoin: miter"/>
   </g>
   <g id="patch_6">
    <path d="M 205.022113 188.689539 
L 214.007713 188.689539 
L 214.007713 98.957082 
L 205.022113 98.957082 
z
" clip-path="url(#pbb78562204)" style="fill: #296399; stroke: #ffffff; stroke-linejoin: miter"/>
   </g>
   <g id="patch_7">
    <path d="M 249.950113 188.689539 
L 258.935713 188.689539 
L 258.935713 125.249221 
L 249.950113 125.249221 
z
" clip-path="url(#pbb78562204)" style="fill: #296399; stroke: #ffffff; stroke-linejoin: miter"/>
   </g>
   <g id="patch_8">
    <path d="M 294.878113 188.689539 
L 303.863713 188.689539 
L 303.863713 320.596364 
L 294.878113 320.596364 
z
" clip-path="url(#pbb78562204)" style="fill: #296399; stroke: #ffffff; stroke-linejoin: miter"/>
   </g>
   <g id="patch_9">
    <path d="M 339.806113 188.689539 
L 348.791713 188.689539 
L 348.791713 154.656346 
L 339.806113 154.656346 
z
" clip-path="url(#pbb78562204)" style="fill: #296399; stroke: #ffffff; stroke-linejoin: miter"/>
   </g>
   <g id="patch_10">
    <path d="M 384.734113 188.689539 
L 393.719713 188.689539 
L 393.719713 100.566228 
L 384.734113 100.566228 
z
" clip-path="url(#pbb78562204)" style="fill: #296399; stroke: #ffffff; stroke-linejoin: miter"/>
   </g>
   <g id="patch_11">
    <path d="M 429.662113 188.689539 
L 438.647713 188.689539 
L 438.647713 278.324497 
L 429.662113 278.324497 
z
" clip-path="url(#pbb78562204)" style="fill: #296399; stroke: #ffffff; stroke-linejoin: miter"/>
   </g>
   <g id="patch_12">
    <path d="M 474.590113 188.689539 
L 483.575713 188.689539 
L 483.575713 172.677674 
L 474.590113 172.677674 
z
" clip-path="url(#pbb78562204)" style="fill: #296399; stroke: #ffffff; stroke-linejoin: miter"/>
   </g>
   <g id="patch_13">
    <path d="M 79.223713 188.689539 
L 88.209313 188.689539 
L 88.209313 194.897803 
L 79.223713 194.897803 
z
" clip-path="url(#pbb78562204)" style="fill: #5a94b9; stroke: #ffffff; stroke-linejoin: miter"/>
   </g>
   <g id="patch_14">
    <path d="M 124.151713 188.689539 
L 133.137313 188.689539 
L 133.137313 180.602718 
L 124.151713 180.602718 
z
" clip-path="url(#pbb78562204)" style="fill: #5a94b9; stroke: #ffffff; stroke-linejoin: miter"/>
   </g>
   <g id="patch_15">
    <path d="M 169.079713 188.689539 
L 178.065313 188.689539 
L 178.065313 192.062416 
L 169.079713 192.062416 
z
" clip-path="url(#pbb78562204)" style="fill: #5a94b9; stroke: #ffffff; stroke-linejoin: miter"/>
   </g>
   <g id="patch_16">
    <path d="M 214.007713 188.689539 
L 222.993313 188.689539 
L 222.993313 206.437567 
L 214.007713 206.437567 
z
" clip-path="url(#pbb78562204)" style="fill: #5a94b9; stroke: #ffffff; stroke-linejoin: miter"/>
   </g>
   <g id="patch_17">
    <path d="M 258.935713 188.689539 
L 267.921313 188.689539 
L 267.921313 191.247394 
L 258.935713 191.247394 
z
" clip-path="url(#pbb78562204)" style="fill: #5a94b9; stroke: #ffffff; stroke-linejoin: miter"/>
   </g>
   <g id="patch_18">
    <path d="M 303.863713 188.689539 
L 312.849313 188.689539 
L 312.849313 178.395265 
L 303.863713 178.395265 
z
" clip-path="url(#pbb78562204)" style="fill: #5a94b9; stroke: #ffffff; stroke-linejoin: miter"/>
   </g>
   <g id="patch_19">
    <path d="M 348.791713 188.689539 
L 357.777313 188.689539 
L 357.777313 189.882271 
L 348.791713 189.882271 
z
" clip-path="url(#pbb78562204)" style="fill: #5a94b9; stroke: #ffffff; stroke-linejoin: miter"/>
   </g>
   <g id="patch_20">
    <path d="M 393.719713 188.689539 
L 402.705313 188.689539 
L 402.705313 198.958983 
L 393.719713 198.958983 
z
" clip-path="url(#pbb78562204)" style="fill: #5a94b9; stroke: #ffffff; stroke-linejoin: miter"/>
   </g>
   <g id="patch_21">
    <path d="M 438.647713 188.689539 
L 447.633313 188.689539 
L 447.633313 179.432784 
L 438.647713 179.432784 
z
" clip-path="url(#pbb78562204)" style="fill: #5a94b9; stroke: #ffffff; stroke-linejoin: miter"/>
   </g>
   <g id="patch_22">
    <path d="M 483.575713 188.689539 
L 492.561313 188.689539 
L 492.561313 191.630484 
L 483.575713 191.630484 
z
" clip-path="url(#pbb78562204)" style="fill: #5a94b9; stroke: #ffffff; stroke-linejoin: miter"/>
   </g>
   <g id="patch_23">
    <path d="M 88.209313 188.689539 
L 97.194913 188.689539 
L 97.194913 53.918986 
L 88.209313 53.918986 
z
" clip-path="url(#pbb78562204)" style="fill: #9dc2d5; stroke: #ffffff; stroke-linejoin: miter"/>
   </g>
   <g id="patch_24">
    <path d="M 133.137313 188.689539 
L 142.122913 188.689539 
L 142.122913 215.440768 
L 133.137313 215.440768 
z
" clip-path="url(#pbb78562204)" style="fill: #9dc2d5; stroke: #ffffff; stroke-linejoin: miter"/>
   </g>
   <g id="patch_25">
    <path d="M 178.065313 188.689539 
L 187.050913 188.689539 
L 187.050913 178.818749 
L 178.065313 178.818749 
z
" clip-path="url(#pbb78562204)" style="fill: #9dc2d5; stroke: #ffffff; stroke-linejoin: miter"/>
   </g>
   <g id="patch_26">
    <path d="M 222.993313 188.689539 
L 231.978913 188.689539 
L 231.978913 125.386556 
L 222.993313 125.386556 
z
" clip-path="url(#pbb78562204)" style="fill: #9dc2d5; stroke: #ffffff; stroke-linejoin: miter"/>
   </g>
   <g id="patch_27">
    <path d="M 267.921312 188.689539 
L 276.906912 188.689539 
L 276.906912 160.015512 
L 267.921312 160.015512 
z
" clip-path="url(#pbb78562204)" style="fill: #9dc2d5; stroke: #ffffff; stroke-linejoin: miter"/>
   </g>
   <g id="patch_28">
    <path d="M 312.849312 188.689539 
L 321.834913 188.689539 
L 321.834913 292.216753 
L 312.849312 292.216753 
z
" clip-path="url(#pbb78562204)" style="fill: #9dc2d5; stroke: #ffffff; stroke-linejoin: miter"/>
   </g>
   <g id="patch_29">
    <path d="M 357.777313 188.689539 
L 366.762913 188.689539 
L 366.762913 158.514055 
L 357.777313 158.514055 
z
" clip-path="url(#pbb78562204)" style="fill: #9dc2d5; stroke: #ffffff; stroke-linejoin: miter"/>
   </g>
   <g id="patch_30">
    <path d="M 402.705313 188.689539 
L 411.690913 188.689539 
L 411.690913 120.794955 
L 402.705313 120.794955 
z
" clip-path="url(#pbb78562204)" style="fill: #9dc2d5; stroke: #ffffff; stroke-linejoin: miter"/>
   </g>
   <g id="patch_31">
    <path d="M 447.633313 188.689539 
L 456.618913 188.689539 
L 456.618913 248.284058 
L 447.633313 248.284058 
z
" clip-path="url(#pbb78562204)" style="fill: #9dc2d5; stroke: #ffffff; stroke-linejoin: miter"/>
   </g>
   <g id="patch_32">
    <path d="M 492.561313 188.689539 
L 501.546913 188.689539 
L 501.546913 184.50405 
L 492.561313 184.50405 
z
" clip-path="url(#pbb78562204)" style="fill: #9dc2d5; stroke: #ffffff; stroke-linejoin: miter"/>
   </g>
   <g id="patch_33">
    <path d="M 97.194913 188.689539 
L 106.180513 188.689539 
L 106.180513 104.916505 
L 97.194913 104.916505 
z
" clip-path="url(#pbb78562204)" style="fill: #d4e1ee; stroke: #ffffff; stroke-linejoin: miter"/>
   </g>
   <g id="patch_34">
    <path d="M 142.122913 188.689539 
L 151.108513 188.689539 
L 151.108513 204.365541 
L 142.122913 204.365541 
z
" clip-path="url(#pbb78562204)" style="fill: #d4e1ee; stroke: #ffffff; stroke-linejoin: miter"/>
   </g>
   <g id="patch_35">
    <path d="M 187.050913 188.689539 
L 196.036512 188.689539 
L 196.036512 186.882903 
L 187.050913 186.882903 
z
" clip-path="url(#pbb78562204)" style="fill: #d4e1ee; stroke: #ffffff; stroke-linejoin: miter"/>
   </g>
   <g id="patch_36">
    <path d="M 231.978913 188.689539 
L 240.964512 188.689539 
L 240.964512 150.327862 
L 231.978913 150.327862 
z
" clip-path="url(#pbb78562204)" style="fill: #d4e1ee; stroke: #ffffff; stroke-linejoin: miter"/>
   </g>
   <g id="patch_37">
    <path d="M 276.906913 188.689539 
L 285.892513 188.689539 
L 285.892513 178.895526 
L 276.906913 178.895526 
z
" clip-path="url(#pbb78562204)" style="fill: #d4e1ee; stroke: #ffffff; stroke-linejoin: miter"/>
   </g>
   <g id="patch_38">
    <path d="M 321.834913 188.689539 
L 330.820513 188.689539 
L 330.820513 246.149363 
L 321.834913 246.149363 
z
" clip-path="url(#pbb78562204)" style="fill: #d4e1ee; stroke: #ffffff; stroke-linejoin: miter"/>
   </g>
   <g id="patch_39">
    <path d="M 366.762913 188.689539 
L 375.748513 188.689539 
L 375.748513 179.180014 
L 366.762913 179.180014 
z
" clip-path="url(#pbb78562204)" style="fill: #d4e1ee; stroke: #ffffff; stroke-linejoin: miter"/>
   </g>
   <g id="patch_40">
    <path d="M 411.690913 188.689539 
L 420.676513 188.689539 
L 420.676513 146.612009 
L 411.690913 146.612009 
z
" clip-path="url(#pbb78562204)" style="fill: #d4e1ee; stroke: #ffffff; stroke-linejoin: miter"/>
   </g>
   <g id="patch_41">
    <path d="M 456.618913 188.689539 
L 465.604513 188.689539 
L 465.604513 217.335465 
L 456.618913 217.335465 
z
" clip-path="url(#pbb78562204)" style="fill: #d4e1ee; stroke: #ffffff; stroke-linejoin: miter"/>
   </g>
   <g id="patch_42">
    <path d="M 501.546913 188.689539 
L 510.532513 188.689539 
L 510.532513 192.413543 
L 501.546913 192.413543 
z
" clip-path="url(#pbb78562204)" style="fill: #d4e1ee; stroke: #ffffff; stroke-linejoin: miter"/>
   </g>
   <g id="line2d_1">
    <path clip-path="url(#pbb78562204)" style="fill: none; stroke: #424242; stroke-width: 2.7; stroke-linecap: round"/>
   </g>
   <g id="line2d_2">
    <path clip-path="url(#pbb78562204)" style="fill: none; stroke: #424242; stroke-width: 2.7; stroke-linecap: round"/>
   </g>
   <g id="line2d_3">
    <path clip-path="url(#pbb78562204)" style="fill: none; stroke: #424242; stroke-width: 2.7; stroke-linecap: round"/>
   </g>
   <g id="line2d_4">
    <path clip-path="url(#pbb78562204)" style="fill: none; stroke: #424242; stroke-width: 2.7; stroke-linecap: round"/>
   </g>
   <g id="line2d_5">
    <path clip-path="url(#pbb78562204)" style="fill: none; stroke: #424242; stroke-width: 2.7; stroke-linecap: round"/>
   </g>
   <g id="line2d_6">
    <path clip-path="url(#pbb78562204)" style="fill: none; stroke: #424242; stroke-width: 2.7; stroke-linecap: round"/>
   </g>
   <g id="line2d_7">
    <path clip-path="url(#pbb78562204)" style="fill: none; stroke: #424242; stroke-width: 2.7; stroke-linecap: round"/>
   </g>
   <g id="line2d_8">
    <path clip-path="url(#pbb78562204)" style="fill: none; stroke: #424242; stroke-width: 2.7; stroke-linecap: round"/>
   </g>
   <g id="line2d_9">
    <path clip-path="url(#pbb78562204)" style="fill: none; stroke: #424242; stroke-width: 2.7; stroke-linecap: round"/>
   </g>
   <g id="line2d_10">
    <path clip-path="url(#pbb78562204)" style="fill: none; stroke: #424242; stroke-width: 2.7; stroke-linecap: round"/>
   </g>
   <g id="line2d_11">
    <path clip-path="url(#pbb78562204)" style="fill: none; stroke: #424242; stroke-width: 2.7; stroke-linecap: round"/>
   </g>
   <g id="line2d_12">
    <path clip-path="url(#pbb78562204)" style="fill: none; stroke: #424242; stroke-width: 2.7; stroke-linecap: round"/>
   </g>
   <g id="line2d_13">
    <path clip-path="url(#pbb78562204)" style="fill: none; stroke: #424242; stroke-width: 2.7; stroke-linecap: round"/>
   </g>
   <g id="line2d_14">
    <path clip-path="url(#pbb78562204)" style="fill: none; stroke: #424242; stroke-width: 2.7; stroke-linecap: round"/>
   </g>
   <g id="line2d_15">
    <path clip-path="url(#pbb78562204)" style="fill: none; stroke: #424242; stroke-width: 2.7; stroke-linecap: round"/>
   </g>
   <g id="line2d_16">
    <path clip-path="url(#pbb78562204)" style="fill: none; stroke: #424242; stroke-width: 2.7; stroke-linecap: round"/>
   </g>
   <g id="line2d_17">
    <path clip-path="url(#pbb78562204)" style="fill: none; stroke: #424242; stroke-width: 2.7; stroke-linecap: round"/>
   </g>
   <g id="line2d_18">
    <path clip-path="url(#pbb78562204)" style="fill: none; stroke: #424242; stroke-width: 2.7; stroke-linecap: round"/>
   </g>
   <g id="line2d_19">
    <path clip-path="url(#pbb78562204)" style="fill: none; stroke: #424242; stroke-width: 2.7; stroke-linecap: round"/>
   </g>
   <g id="line2d_20">
    <path clip-path="url(#pbb78562204)" style="fill: none; stroke: #424242; stroke-width: 2.7; stroke-linecap: round"/>
   </g>
   <g id="line2d_21">
    <path clip-path="url(#pbb78562204)" style="fill: none; stroke: #424242; stroke-width: 2.7; stroke-linecap: round"/>
   </g>
   <g id="line2d_22">
    <path clip-path="url(#pbb78562204)" style="fill: none; stroke: #424242; stroke-width: 2.7; stroke-linecap: round"/>
   </g>
   <g id="line2d_23">
    <path clip-path="url(#pbb78562204)" style="fill: none; stroke: #424242; stroke-width: 2.7; stroke-linecap: round"/>
   </g>
   <g id="line2d_24">
    <path clip-path="url(#pbb78562204)" style="fill: none; stroke: #424242; stroke-width: 2.7; stroke-linecap: round"/>
   </g>
   <g id="line2d_25">
    <path clip-path="url(#pbb78562204)" style="fill: none; stroke: #424242; stroke-width: 2.7; stroke-linecap: round"/>
   </g>
   <g id="line2d_26">
    <path clip-path="url(#pbb78562204)" style="fill: none; stroke: #424242; stroke-width: 2.7; stroke-linecap: round"/>
   </g>
   <g id="line2d_27">
    <path clip-path="url(#pbb78562204)" style="fill: none; stroke: #424242; stroke-width: 2.7; stroke-linecap: round"/>
   </g>
   <g id="line2d_28">
    <path clip-path="url(#pbb78562204)" style="fill: none; stroke: #424242; stroke-width: 2.7; stroke-linecap: round"/>
   </g>
   <g id="line2d_29">
    <path clip-path="url(#pbb78562204)" style="fill: none; stroke: #424242; stroke-width: 2.7; stroke-linecap: round"/>
   </g>
   <g id="line2d_30">
    <path clip-path="url(#pbb78562204)" style="fill: none; stroke: #424242; stroke-width: 2.7; stroke-linecap: round"/>
   </g>
   <g id="line2d_31">
    <path clip-path="url(#pbb78562204)" style="fill: none; stroke: #424242; stroke-width: 2.7; stroke-linecap: round"/>
   </g>
   <g id="line2d_32">
    <path clip-path="url(#pbb78562204)" style="fill: none; stroke: #424242; stroke-width: 2.7; stroke-linecap: round"/>
   </g>
   <g id="line2d_33">
    <path clip-path="url(#pbb78562204)" style="fill: none; stroke: #424242; stroke-width: 2.7; stroke-linecap: round"/>
   </g>
   <g id="line2d_34">
    <path clip-path="url(#pbb78562204)" style="fill: none; stroke: #424242; stroke-width: 2.7; stroke-linecap: round"/>
   </g>
   <g id="line2d_35">
    <path clip-path="url(#pbb78562204)" style="fill: none; stroke: #424242; stroke-width: 2.7; stroke-linecap: round"/>
   </g>
   <g id="line2d_36">
    <path clip-path="url(#pbb78562204)" style="fill: none; stroke: #424242; stroke-width: 2.7; stroke-linecap: round"/>
   </g>
   <g id="line2d_37">
    <path clip-path="url(#pbb78562204)" style="fill: none; stroke: #424242; stroke-width: 2.7; stroke-linecap: round"/>
   </g>
   <g id="line2d_38">
    <path clip-path="url(#pbb78562204)" style="fill: none; stroke: #424242; stroke-width: 2.7; stroke-linecap: round"/>
   </g>
   <g id="line2d_39">
    <path clip-path="url(#pbb78562204)" style="fill: none; stroke: #424242; stroke-width: 2.7; stroke-linecap: round"/>
   </g>
   <g id="line2d_40">
    <path clip-path="url(#pbb78562204)" style="fill: none; stroke: #424242; stroke-width: 2.7; stroke-linecap: round"/>
   </g>
   <g id="patch_43">
    <path d="M 65.745313 335.52 
L 65.745313 7.2 
" style="fill: none; stroke: #262626; stroke-width: 0.8; stroke-linejoin: miter; stroke-linecap: square"/>
   </g>
   <g id="patch_44">
    <path d="M 65.745313 335.52 
L 515.025313 335.52 
" style="fill: none; stroke: #262626; stroke-width: 0.8; stroke-linejoin: miter; stroke-linecap: square"/>
   </g>
   <g id="legend_1">
    <g id="patch_45">
     <path d="M 298.830488 28.578787 
L 305.270488 28.578787 
L 305.270488 19.562787 
L 298.830488 19.562787 
z
" style="fill: #296399; stroke: #ffffff; stroke-linejoin: miter"/>
    </g>
    <g id="text_19">
     <!-- ENSMUST00000090269:Actc1 -->
     <g style="fill: #262626" transform="translate(310.422488 28.578787)scale(0.1288 -0.1288)">
      <defs>
       <path id="DejaVuSans-55" d="M 556 4666 
L 1191 4666 
L 1191 1831 
Q 1191 1081 1462 751 
Q 1734 422 2344 422 
Q 2950 422 3222 751 
Q 3494 1081 3494 1831 
L 3494 4666 
L 4128 4666 
L 4128 1753 
Q 4128 841 3676 375 
Q 3225 -91 2344 -91 
Q 1459 -91 1007 375 
Q 556 841 556 1753 
L 556 4666 
z
" transform="scale(0.015625)"/>
       <path id="DejaVuSans-54" d="M -19 4666 
L 3928 4666 
L 3928 4134 
L 2272 4134 
L 2272 0 
L 1638 0 
L 1638 4134 
L -19 4134 
L -19 4666 
z
" transform="scale(0.015625)"/>
       <path id="DejaVuSans-39" d="M 703 97 
L 703 672 
Q 941 559 1184 500 
Q 1428 441 1663 441 
Q 2288 441 2617 861 
Q 2947 1281 2994 2138 
Q 2813 1869 2534 1725 
Q 2256 1581 1919 1581 
Q 1219 1581 811 2004 
Q 403 2428 403 3163 
Q 403 3881 828 4315 
Q 1253 4750 1959 4750 
Q 2769 4750 3195 4129 
Q 3622 3509 3622 2328 
Q 3622 1225 3098 567 
Q 2575 -91 1691 -91 
Q 1453 -91 1209 -44 
Q 966 3 703 97 
z
M 1959 2075 
Q 2384 2075 2632 2365 
Q 2881 2656 2881 3163 
Q 2881 3666 2632 3958 
Q 2384 4250 1959 4250 
Q 1534 4250 1286 3958 
Q 1038 3666 1038 3163 
Q 1038 2656 1286 2365 
Q 1534 2075 1959 2075 
z
" transform="scale(0.015625)"/>
       <path id="DejaVuSans-36" d="M 2113 2584 
Q 1688 2584 1439 2293 
Q 1191 2003 1191 1497 
Q 1191 994 1439 701 
Q 1688 409 2113 409 
Q 2538 409 2786 701 
Q 3034 994 3034 1497 
Q 3034 2003 2786 2293 
Q 2538 2584 2113 2584 
z
M 3366 4563 
L 3366 3988 
Q 3128 4100 2886 4159 
Q 2644 4219 2406 4219 
Q 1781 4219 1451 3797 
Q 1122 3375 1075 2522 
Q 1259 2794 1537 2939 
Q 1816 3084 2150 3084 
Q 2853 3084 3261 2657 
Q 3669 2231 3669 1497 
Q 3669 778 3244 343 
Q 2819 -91 2113 -91 
Q 1303 -91 875 529 
Q 447 1150 447 2328 
Q 447 3434 972 4092 
Q 1497 4750 2381 4750 
Q 2619 4750 2861 4703 
Q 3103 4656 3366 4563 
z
" transform="scale(0.015625)"/>
       <path id="DejaVuSans-3a" d="M 750 794 
L 1409 794 
L 1409 0 
L 750 0 
L 750 794 
z
M 750 3309 
L 1409 3309 
L 1409 2516 
L 750 2516 
L 750 3309 
z
" transform="scale(0.015625)"/>
       <path id="DejaVuSans-63" d="M 3122 3366 
L 3122 2828 
Q 2878 2963 2633 3030 
Q 2388 3097 2138 3097 
Q 1578 3097 1268 2742 
Q 959 2388 959 1747 
Q 959 1106 1268 751 
Q 1578 397 2138 397 
Q 2388 397 2633 464 
Q 2878 531 3122 666 
L 3122 134 
Q 2881 22 2623 -34 
Q 2366 -91 2075 -91 
Q 1284 -91 818 406 
Q 353 903 353 1747 
Q 353 2603 823 3093 
Q 1294 3584 2113 3584 
Q 2378 3584 2631 3529 
Q 2884 3475 3122 3366 
z
" transform="scale(0.015625)"/>
      </defs>
      <use xlink:href="#DejaVuSans-45"/>
      <use xlink:href="#DejaVuSans-4e" x="63.183594"/>
      <use xlink:href="#DejaVuSans-53" x="137.988281"/>
      <use xlink:href="#DejaVuSans-4d" x="201.464844"/>
      <use xlink:href="#DejaVuSans-55" x="287.744141"/>
      <use xlink:href="#DejaVuSans-53" x="360.9375"/>
      <use xlink:href="#DejaVuSans-54" x="424.414062"/>
      <use xlink:href="#DejaVuSans-30" x="485.498047"/>
      <use xlink:href="#DejaVuSans-30" x="549.121094"/>
      <use xlink:href="#DejaVuSans-30" x="612.744141"/>
      <use xlink:href="#DejaVuSans-30" x="676.367188"/>
      <use xlink:href="#DejaVuSans-30" x="739.990234"/>
      <use xlink:href="#DejaVuSans-30" x="803.613281"/>
      <use xlink:href="#DejaVuSans-39" x="867.236328"/>
      <use xlink:href="#DejaVuSans-30" x="930.859375"/>
      <use xlink:href="#DejaVuSans-32" x="994.482422"/>
      <use xlink:href="#DejaVuSans-36" x="1058.105469"/>
      <use xlink:href="#DejaVuSans-39" x="1121.728516"/>
      <use xlink:href="#DejaVuSans-3a" x="1185.351562"/>
      <use xlink:href="#DejaVuSans-41" x="1219.042969"/>
      <use xlink:href="#DejaVuSans-63" x="1285.701172"/>
      <use xlink:href="#DejaVuSans-74" x="1340.681641"/>
      <use xlink:href="#DejaVuSans-63" x="1379.890625"/>
      <use xlink:href="#DejaVuSans-31" x="1434.871094"/>
     </g>
    </g>
    <g id="patch_46">
     <path d="M 298.830488 47.484212 
L 305.270488 47.484212 
L 305.270488 38.468212 
L 298.830488 38.468212 
z
" style="fill: #5a94b9; stroke: #ffffff; stroke-linejoin: miter"/>
    </g>
    <g id="text_20">
     <!-- MSTRG.10093.1:Actc1 -->
     <g style="fill: #262626" transform="translate(310.422488 47.484212)scale(0.1288 -0.1288)">
      <defs>
       <path id="DejaVuSans-47" d="M 3809 666 
L 3809 1919 
L 2778 1919 
L 2778 2438 
L 4434 2438 
L 4434 434 
Q 4069 175 3628 42 
Q 3188 -91 2688 -91 
Q 1594 -91 976 548 
Q 359 1188 359 2328 
Q 359 3472 976 4111 
Q 1594 4750 2688 4750 
Q 3144 4750 3555 4637 
Q 3966 4525 4313 4306 
L 4313 3634 
Q 3963 3931 3569 4081 
Q 3175 4231 2741 4231 
Q 1884 4231 1454 3753 
Q 1025 3275 1025 2328 
Q 1025 1384 1454 906 
Q 1884 428 2741 428 
Q 3075 428 3337 486 
Q 3600 544 3809 666 
z
" transform="scale(0.015625)"/>
      </defs>
      <use xlink:href="#DejaVuSans-4d"/>
      <use xlink:href="#DejaVuSans-53" x="86.279297"/>
      <use xlink:href="#DejaVuSans-54" x="149.755859"/>
      <use xlink:href="#DejaVuSans-52" x="210.839844"/>
      <use xlink:href="#DejaVuSans-47" x="280.322266"/>
      <use xlink:href="#DejaVuSans-2e" x="357.8125"/>
      <use xlink:href="#DejaVuSans-31" x="389.599609"/>
      <use xlink:href="#DejaVuSans-30" x="453.222656"/>
      <use xlink:href="#DejaVuSans-30" x="516.845703"/>
      <use xlink:href="#DejaVuSans-39" x="580.46875"/>
      <use xlink:href="#DejaVuSans-33" x="644.091797"/>
      <use xlink:href="#DejaVuSans-2e" x="707.714844"/>
      <use xlink:href="#DejaVuSans-31" x="739.501953"/>
      <use xlink:href="#DejaVuSans-3a" x="803.125"/>
      <use xlink:href="#DejaVuSans-41" x="836.816406"/>
      <use xlink:href="#DejaVuSans-63" x="903.474609"/>
      <use xlink:href="#DejaVuSans-74" x="958.455078"/>
      <use xlink:href="#DejaVuSans-63" x="997.664062"/>
      <use xlink:href="#DejaVuSans-31" x="1052.644531"/>
     </g>
    </g>
    <g id="patch_47">
     <path d="M 298.830488 66.389637 
L 305.270488 66.389637 
L 305.270488 57.373637 
L 298.830488 57.373637 
z
" style="fill: #9dc2d5; stroke: #ffffff; stroke-linejoin: miter"/>
    </g>
    <g id="text_21">
     <!-- MSTRG.10092.1:Actc1 -->
     <g style="fill: #262626" transform="translate(310.422488 66.389637)scale(0.1288 -0.1288)">
      <use xlink:href="#DejaVuSans-4d"/>
      <use xlink:href="#DejaVuSans-53" x="86.279297"/>
      <use xlink:href="#DejaVuSans-54" x="149.755859"/>
      <use xlink:href="#DejaVuSans-52" x="210.839844"/>
      <use xlink:href="#DejaVuSans-47" x="280.322266"/>
      <use xlink:href="#DejaVuSans-2e" x="357.8125"/>
      <use xlink:href="#DejaVuSans-31" x="389.599609"/>
      <use xlink:href="#DejaVuSans-30" x="453.222656"/>
      <use xlink:href="#DejaVuSans-30" x="516.845703"/>
      <use xlink:href="#DejaVuSans-39" x="580.46875"/>
      <use xlink:href="#DejaVuSans-32" x="644.091797"/>
      <use xlink:href="#DejaVuSans-2e" x="707.714844"/>
      <use xlink:href="#DejaVuSans-31" x="739.501953"/>
      <use xlink:href="#DejaVuSans-3a" x="803.125"/>
      <use xlink:href="#DejaVuSans-41" x="836.816406"/>
      <use xlink:href="#DejaVuSans-63" x="903.474609"/>
      <use xlink:href="#DejaVuSans-74" x="958.455078"/>
      <use xlink:href="#DejaVuSans-63" x="997.664062"/>
      <use xlink:href="#DejaVuSans-31" x="1052.644531"/>
     </g>
    </g>
    <g id="patch_48">
     <path d="M 298.830488 85.295062 
L 305.270488 85.295062 
L 305.270488 76.279062 
L 298.830488 76.279062 
z
" style="fill: #d4e1ee; stroke: #ffffff; stroke-linejoin: miter"/>
    </g>
    <g id="text_22">
     <!-- MSTRG.10092.2:Actc1 -->
     <g style="fill: #262626" transform="translate(310.422488 85.295062)scale(0.1288 -0.1288)">
      <use xlink:href="#DejaVuSans-4d"/>
      <use xlink:href="#DejaVuSans-53" x="86.279297"/>
      <use xlink:href="#DejaVuSans-54" x="149.755859"/>
      <use xlink:href="#DejaVuSans-52" x="210.839844"/>
      <use xlink:href="#DejaVuSans-47" x="280.322266"/>
      <use xlink:href="#DejaVuSans-2e" x="357.8125"/>
      <use xlink:href="#DejaVuSans-31" x="389.599609"/>
      <use xlink:href="#DejaVuSans-30" x="453.222656"/>
      <use xlink:href="#DejaVuSans-30" x="516.845703"/>
      <use xlink:href="#DejaVuSans-39" x="580.46875"/>
      <use xlink:href="#DejaVuSans-32" x="644.091797"/>
      <use xlink:href="#DejaVuSans-2e" x="707.714844"/>
      <use xlink:href="#DejaVuSans-32" x="739.501953"/>
      <use xlink:href="#DejaVuSans-3a" x="803.125"/>
      <use xlink:href="#DejaVuSans-41" x="836.816406"/>
      <use xlink:href="#DejaVuSans-63" x="903.474609"/>
      <use xlink:href="#DejaVuSans-74" x="958.455078"/>
      <use xlink:href="#DejaVuSans-63" x="997.664062"/>
      <use xlink:href="#DejaVuSans-31" x="1052.644531"/>
     </g>
    </g>
   </g>
  </g>
 </g>
 <defs>
  <clipPath id="pbb78562204">
   <rect x="65.745313" y="7.2" width="449.28" height="328.32"/>
  </clipPath>
 </defs>
</svg>
